<svg xmlns="http://www.w3.org/2000/svg" viewBox="0 0 102.88176 125.83612"><title>Asset 26</title><g id="Layer_2" data-name="Layer 2"><g id="Objects"><path d="M38.28577.31685c-15.7134-2.1287-32.7725,6.5949-37.2789,22.3617-4.20069,14.6966,5.1375,29.9097,20.6587,31.2628a.70157.70157,0,0,0,.4703-.1223c14.7047,2.5462,29.6188-5.097,34.5279-19.6638C61.71647,19.16105,54.88237,2.56515,38.28577.31685Zm16.7767,33.3968c-4.7848,14.0476-19.4638,21.3148-33.6932,18.303a.80267.80267,0,0,0-.6767.1473c-16.1428-2.076-23.2242-19.8766-16.235-33.8394,6.0705-12.1284,20.5421-18.0716,33.5978-16.302C53.68237,4.14075,59.80807,19.78125,55.06247,33.71365Z"/><path d="M33.07907,10.08605c-9.6361-.4993-19.7273,6.0554-21.1776,15.9648-1.4845,10.1412,6.4439,16.5219,15.4029,18.429a.79151.79151,0,0,0,.6906.1568l.0797-.0183c.3301.0608.65851.1297.9902.1784a.89694.89694,0,0,0,.9855-.6358c8.8689-2.1392,17.904-5.7486,19.3783-16.1868C50.79147,18.32925,42.21757,10.55965,33.07907,10.08605Zm12.9155,22.8043c-3.947,7.0132-10.8125,8.4662-17.9685,10.0412-8.4794-1.7213-16.4395-7.5679-14.3662-17.5493,1.7939-8.6374,10.9807-14.1455,19.4192-13.6354C43.624,12.38405,51.54147,23.03465,45.99457,32.89035Z"/><path d="M99.33118,4.77765c-5.35841-.0115-12.49821-1.2838-17.67731.0902-4.1439,1.0993-5.2354,3.9047-7.1168,7.6226-6.1676,12.1874-12.5267,24.2597-19.3125,36.1164a723.17,723.17,0,0,1-44.6873,68.6066.70514.70514,0,0,0,.3804,1.1148.84505.84505,0,0,0,.427,1.5436,151.82934,151.82934,0,0,1,19.882,1.853.83847.83847,0,0,0,.5838-.1199.75843.75843,0,0,0,.9831-.327Q66.42087,63.6523,100.04847,6.027A.83815.83815,0,0,0,99.33118,4.77765Zm-4.83441,7.4675q-4.46039,7.64385-8.92159,15.2881-8.92141,15.2889-17.84281,30.577-18.0897,30.9987-36.1786,61.9971a155.24055,155.24055,0,0,0-19.7784-1.8771.852.852,0,0,0,.1956-.1787q19.69515-26.8362,36.9145-55.3586,8.5752-14.2605,16.4779-28.9117,4.25325-7.8861,8.30781-15.8783a65.97215,65.97215,0,0,1,3.43709-6.8679c2.6602-3.9443,6.41691-4.6308,10.822-4.6213,1.1145.0024,8.4148-.6848,8.8675.0189C97.96467,8.24655,95.37787,10.73535,94.49677,12.24515Z"/><path d="M78.43227,75.267c-13.256,2.5209-23.6806,16.3229-22.3557,29.6951,1.2764,12.877,12.6291,21.952,25.3699,19.4209-.5571.5331-.1179,1.6993.7655,1.4068,11.9145-3.95,20.9773-15.1243,20.6618-28.0023C102.561,85.00845,92.07787,72.67235,78.43227,75.267Zm4.0753,48.6491a.869.869,0,0,0-.9527-1.227c-13.1509,2.9527-24.2506-7.7023-23.9583-20.7665.2621-11.7273,10.38-23.6962,22.1979-25.1043,13.9212-1.6588,22.8084,12.1881,21.1486,24.8141A27.86414,27.86414,0,0,1,82.50757,123.91605Z"/><path d="M95.66467,98.84425c-.9476-8.2172-8.2084-14.553-16.54149-13.6922a15.70174,15.70174,0,0,0-14.08311,16.2587c.2487,8.1966,6.8493,14.5966,14.7149,13.5128a.70515.70515,0,0,0,.7837.6868C89.16707,115.03435,96.712,107.92285,95.66467,98.84425Zm-12.9202,14.7702a.77413.77413,0,0,0-1.0112-.8321c-8.9908,2.9682-15.853-5.1284-14.8743-13.6878a13.92027,13.92027,0,0,1,13.7666-12.3675c6.4182-.0365,11.72461,4.7189,13.1519,10.858C95.56937,105.29115,89.90857,112.03135,82.74447,113.61445Z"/></g></g></svg>