<svg xmlns="http://www.w3.org/2000/svg" viewBox="0 0 72.95429 126.66648"><title>Asset 25</title><g id="Layer_2" data-name="Layer 2"><g id="Objects"><path d="M69.25843,66.22674c-4.7527-9.4702-13.6567-11.675-23.3127-13.8006-3.15209-.694-6.5406-1.3213-9.4088-2.8669-.3574-.1929-.77629-.4172-1.2108-.6642a.79735.79735,0,0,0-.3608-.7027,8.34373,8.34373,0,0,1-2.9351-3.3986q-.297-2.2602-.5933-4.52a8.21113,8.21113,0,0,1,4.6155-6.0151.70452.70452,0,0,0,.4027-.4757c.123-.0899.2453-.1801.3683-.27,7.9689-3.5908,20.4418.5703,27.7958,3.9531a.79593.79593,0,0,0,1.3453-.077q1.6824-3.10035,3.3649-6.2004c.8837-1.6297,3.1729-4.3827,3.3641-6.2006.1575-1.4862.1115-1.3605-1.26889-2.3389-6.21211-4.4047-15.17761-5.9226-22.73031-6.1999Q49.27,8.639,49.845.83064a.837.837,0,0,0-.83039-.8304q-8.771.23775-17.54251.4747a.844.844,0,0,0-.8304.8304q-.0153,7.4868-.0298,14.9743c-18.9884,2.8641-28.2181,25.3576-15.12629,40.1279,8.34049,9.4108,22.18579,6.801,31.23509,14.5617,5.3857,4.6193,7.2283,12.6679.46891,17.1426-3.13381,2.0739-7.42231,2.7293-11.06761,3.0236a53.3734,53.3734,0,0,1-25.8195-4.6368.84183.84183,0,0,0-.7331.0189.87945.87945,0,0,0-1.2385.1838,58.09463,58.09463,0,0,0-8.0196,15.6182.7015.7015,0,0,0,.321.8767c-.623.2115-.946,1.124-.2041,1.4689a60.27785,60.27785,0,0,0,19.9101,5.5888c2.9635.2777,9.5851-.974,11.6054.8108,2.29191,2.0243,1.0351,11.7432.9831,14.5915a.84229.84229,0,0,0,.8304.8304l17.0925.1798a.83783.83783,0,0,0,.8304-.8301q-.4632-8.97-.9257-17.9401a.81926.81926,0,0,0,.6041.3209C73.63683,109.983,76.84153,81.33484,69.25843,66.22674Zm-17.8999,40.3299a.67423.67423,0,0,0-.7162.4132c-.3311-.7338-1.6298-.6368-1.5804.3128q.3081,5.964.6155,11.9274c.2811,5.4513-.88579,5.7743-6.1534,5.7189-3.1229-.0328-7.1297.9875-8.88639-2.0277-.80471-1.3804-.01221-5.3335-.04931-6.8885-.0554-2.297-.1622-4.5885-.2825-6.8831-.0209-.4068-.3648-.8865-.8297-.8301a58.40316,58.40316,0,0,1-32.09249-5.0182.78886.78886,0,0,0,.52909-.5203,56.47336,56.47336,0,0,1,7.581-14.8161c10.66691,4.6787,24.5702,7.4722,35.7878,2.9239,7.8959-3.2016,10.8195-11.1864,5.475-18.2246-8.0122-10.552-23.6094-7.1074-32.7351-15.9884-13.9716-13.5959-5.502-36.0999,13.18921-38.8033a.67519.67519,0,0,0,.41749-.2196.75546.75546,0,0,0,.6433-.7709q.01515-7.3743.029-14.749,7.91055-.21435,15.8209-.428Q47.571,9.15924,47.02,16.63294a.85134.85134,0,0,0,.5797,1.4301,49.49718,49.49718,0,0,1,19.22091,4.1284c3.17029,1.4162,4.09859,2.5871,2.33649,5.8341q-2.10915,3.88785-4.2203,7.7756c-8.852-3.9858-22.79919-8.0442-31.6729-2.4415-6.6094,4.1729-5.8655,11.8199.048,16.1408,10.8763,7.9459,26.5148,3.0986,34.0702,16.6729C75.17664,80.178,72.58,108.23874,51.35853,106.55664Z"/></g></g></svg>