<svg xmlns="http://www.w3.org/2000/svg" viewBox="0 0 76.0696 59.54729"><title>Asset 22</title><g id="Layer_2" data-name="Layer 2"><g id="Objects"><path d="M76.03094,35.327,62.62425.6305c-.171-.4416-.75-.85-1.2203-.4963q-7.7847,5.86065-15.7574,11.45a.88621.88621,0,0,0-.9189.6408q-5.8803,4.1199-11.8472,8.1186c-.623-.3939-1.5379.176-1.2811.8591-.5264.3497-1.0466.7078-1.5736,1.0554a2.48318,2.48318,0,0,1-.073-1.4415.82047.82047,0,0,0-.8081-1.02q-3.1875-6.98355-6.3757-13.9665a.83666.83666,0,0,0-1.4338,0q-3.41655,5.7684-6.8344,11.5368a.82.82,0,0,0-.2392.4041Q7.18425,29.7182.10685,41.6651a.83631.83631,0,0,0,.298,1.1362l11.8986,5.2689c.0601.073.1169.149.1777.2219a.66915.66915,0,0,0,.8095.2152l24.7208,10.947a.84417.84417,0,0,0,1.2494-.7169,44.5053,44.5053,0,0,0-.2852-10.4801c-.3351-2.1344-1.1628-3.4793.7081-5.0395,1-.8341,6.3622-1.2219,7.6642-1.4719q2.5743-.49455,5.1486-.9889l.0007.0004a.849.849,0,0,0,1.5385-.296q10.70775-2.057,21.41549-4.1131A.83247.83247,0,0,0,76.03094,35.327ZM62.45935,4.7896c2.5892,3.2135,3.7629,9.7385,5.2669,13.6307,1.4953,3.8699,4.06549,8.3179,4.78849,12.3915.3196,1.8017.9041,2.6108.3831,3.404C66.927,25.1064,60.91955,16.0311,54.07835,7.5423,56.83575,5.2078,60.11475,1.8788,62.45935,4.7896ZM2.86765,40.2638c-.0311-.671.9027-2.0135,1.696-3.1115a86.42276,86.42276,0,0,0,5.8013,8.5054C7.05285,44.455,2.98385,42.7455,2.86765,40.2638Zm10.9108,6.6547c-.125-.0554-.273-.1145-.4216-.1736A84.11568,84.11568,0,0,1,5.742,35.901a.82563.82563,0,0,0-.175-.1939q1.3764-2.3235,2.7527-4.6473,4.09965,8.8905,8.9345,17.3975Q15.516,47.68765,13.77845,46.9185Zm12.5358,5.5507q-3.8301-1.6962-7.6615-3.3926a.77724.77724,0,0,0,.2547-1.0625q-5.0736-8.888-9.3384-18.1841a.70213.70213,0,0,0-.3203-.3378q.1257-.2139.2527-.427,1.2537-2.11515,2.5061-4.2307A196.01747,196.01747,0,0,0,26.415,52.5171C26.38385,52.5029,26.34325,52.482,26.31425,52.4692Zm2.979,1.5439a.69323.69323,0,0,0-.0419-.1071,193.47645,193.47645,0,0,1-15.9837-30.3026.84221.84221,0,0,0-.3108-.371q1.05915-1.78875,2.1189-3.5777Q25.4724,38.36615,36.396,56.7735C34.53915,56.6523,31.60335,55.2229,29.29325,54.0131Zm8.6872,2.1797q-11.254-18.95775-21.9547-38.2337c.5453-1.0483,1.327-2.6,2.1642-4.1179q9.34965,14.11365,18.6999,28.227c-.0675.0128-.1351.026-.2027.0388a.84017.84017,0,0,0-.5797,1.0216C36.71355,45.3165,39.38175,54.0516,37.98045,56.1928Zm.6081-14.451a.8015.8015,0,0,0-.1156-.2865q-9.4671-14.291-18.9357-28.582a.79684.79684,0,0,0-.5879-.3682c1.1473-1.9493,2.2946-3.549,3-3.4899,1.5642.1311,5.5,11.046,6.1095,12.3811a.77591.77591,0,0,0,.1851.2527,4.17385,4.17385,0,0,0,1.198,2.7466.83136.83136,0,0,0,1.3966-.6878c.5648-.3727,1.1196-.7602,1.6838-1.1345q6.32925,8.7735,11.8925,18.0496Q41.501,41.1824,38.58855,41.7418Zm7.5675-1.4533q-5.7192-9.594-12.2614-18.6398c1.5682-1.046,3.1189-2.1163,4.6797-3.1734q6.4905,10.3881,12.9817,20.776Q48.85605,39.7697,46.15605,40.2885Zm7.148-1.3727Q46.6259,28.22935,39.94935,17.5429q2.7486-1.87245,5.479-3.7719,7.3764,11.9118,14.7527,23.8239Q56.74215,38.25565,53.30405,38.9158Zm11.4864-2.206q-1.43205.2751-2.8642.5499-7.56585-12.21825-15.1324-24.437,3.01215-2.10465,5.9926-4.2554c6.852,8.4837,12.8391,17.5759,18.80939,26.6874-.1304.0743-.2662.1493-.41829.2287C69.464,36.376,66.73975,36.3354,64.79045,36.7098Z"/></g></g></svg>