<svg xmlns="http://www.w3.org/2000/svg" viewBox="0 0 191.81255 153.48248"><title>Asset 20</title><g id="Layer_2" data-name="Layer 2"><g id="Objects"><path d="M191.41689,145.54625q-5.2059-2.6721-10.5902-4.9581a.84346.84346,0,0,0-1.2196.9379,37.70431,37.70431,0,0,1,.5469,4.4091q-7.7067.03285-15.41309.0659.0897-9.8337.0267-19.6648a.88512.88512,0,0,0,.202-1.044,1.66057,1.66057,0,0,0-.206-.2979c-.0254-3.6845-.0872-7.3683-.144-11.052a.733.733,0,0,0-.0044-.35q-.4104-26.2773-1.8584-52.5286a.82783.82783,0,0,0-.8226-.7908q-.1212-.77445-.2419-1.548a.8329.8329,0,0,0-.8004-.6095q-9.83295.0117-19.6289-.7655c-.7284-.0581-.944.6936-.6767,1.2057a.72777.72777,0,0,0-.0997.4287q.72015,9.9177,1.223,19.8446c-.8936-.1818-1.2439,1.2645-.3031,1.6236.1345.0514.2663.1081.4004.1598q1.59675,32.216.9902,64.4903a.8307.8307,0,0,0,1.6604,0c.05-2.654.0771-5.308.1048-7.9618,6.2716,1.8781,13.0249,4.444,18.5229,7.9703-.0027.299-.002.598-.0047.8969q-20.07315.08625-40.1465.172a.72.72,0,0,0-.3288-.3226,120.38093,120.38093,0,0,1-12.8732-7.3666q.30105-3.67035.5138-7.3428,10.4514,6.5436,21.0489,12.8455c-.002.3706.5233.7412.521,1.1119-.0075,1.0685,2.1837,1.0699,2.1837,0v-.4294c0-.2041.3458-1.1058-.3407-1.5129-.0598-.0354-.3803-.0719-.4397-.1074.0125-2.6122-.1199-5.224-.1284-7.8355a.80434.80434,0,0,0-.069-1.3486q-.14085-30.2325-2.2003-60.4106a.81432.81432,0,0,0-.4264-.6578c-.0689-.1338-.1464-.2676-.2153-.401a12.83964,12.83964,0,0,1-1.3872-.9767q-10.1928.5727-20.3864,1.146a.80332.80332,0,0,0-.4438.1672.67808.67808,0,0,0-1.011.3216q-.3771.8508-.7542,1.7024a.89725.89725,0,0,0,1.0229,1.227c.1524,1.3899.2692,2.7807.4037,4.1713a.77324.77324,0,0,0,.0817.8459q1.3302,14.1324,1.4584,28.2915a.84539.84539,0,0,0-.0027.9821q.0411,9.4515-.454,18.9023a.85286.85286,0,0,0-.0534.8229c-.3,5.3743-.7169,10.7466-1.2828,16.1148a.72436.72436,0,0,0,.0125.1261q-5.249.0222-10.4979.0449l-1.0872-49.96a.845.845,0,0,0-1.4739-.5196.71222.71222,0,0,0-.7913-.8006,171.28783,171.28783,0,0,1-21.1171.4152c-.9311-.0392-1.048,1.2148-.3578,1.5685.0003.0142-.0061.0237-.0051.0385.1666,2.3798.3014,4.7595.4298,7.1395a.87232.87232,0,0,0-.1338,1.5038c.0763.0516.1544.101.2311.1527q.2148,4.27245.353,8.5462a.82856.82856,0,0,0,.0439,1.2402q.454,15.38055-.1206,30.7783L59.847,146.45a.79645.79645,0,0,0,.0378-.3206,232.61953,232.61953,0,0,1-.702-28.3644.72009.72009,0,0,0-.527-.7557.79832.79832,0,0,0-.775-.7092q-4.99365-.21525-9.9875-.4297c-.055-.0334-.1098-.0665-.1648-.1a.73864.73864,0,0,0-.8929.0544q-5.03115-.21645-10.0628-.4331c-1.0176-.0439-1.0524,1.4432-.1345,1.627a.80746.80746,0,0,0-1.1034.7561q.14235,14.3979.8848,28.7756-14.7501.0633-29.5006.1263c1.8774-43.5762,4.3152-87.2159,4.2102-130.8431,1.0618-.024,2.1229-.0504,3.1868-.1183a.84114.84114,0,0,0,.8003-1.051q-1.76805-6.3324-3.9192-12.5425a.85113.85113,0,0,0-.2014-.3237.76525.76525,0,0,0-.6395-.6878c-.0098-.0027-.0196-.0027-.0294-.0051a.94764.94764,0,0,0-.1895-.0199.7844.7844,0,0,0-.825.5676Q7.2736,8.2011,5.2343,14.74905a.83949.83949,0,0,0,.8007,1.051c.5297.023,1.0578.0179,1.5868.0264a.83734.83734,0,0,0,.8939.0148c.3176.0021.6355.0163.9531.0159.104,43.6215-2.3338,87.2562-4.2108,130.827q-2.22765.009-4.4561.0189a.8307.8307,0,0,0,0,1.6604q2.1927-.0096,4.3851-.0185-.0927,2.1684-.1854,4.3371c-.0446,1.0683,1.6158,1.0662,1.6604,0q.09075-2.172.1858-4.3446,86.6856-.37095,173.37039-.7422c.0244,1.051.0173,2.1047-.0432,3.1652-.5487.5726-.1149,1.1555.7476.8014,3.25781-1.3382,6.4112-2.1952,9.474-5.1952h.3284c.4557,0,.70541.2844.7726-.0626C191.91889,145.95915,191.94219,145.81585,191.41689,145.54625ZM57.5186,117.94c-.0442,1.2466-.0591,2.4787-.0817,3.7142q-3.303-2.00175-6.6064-4.0037Q54.1746,117.79535,57.5186,117.94Zm-20.3229-.2064a.73893.73893,0,0,0-.5267-.7277c.0365.0057.0642.0341.1038.0358q5.3037.228,10.6073.4594,5.00685,3.0345,10.0145,6.0693-.02985,3.0228.0152,6.0226a.75631.75631,0,0,0-.1317-.1088q-10.18125-5.4009-20.0736-11.3108C37.2032,118.02645,37.1971,117.88045,37.1957,117.73355Zm.048,2.3827q9.4707,5.6286,19.1966,10.8017a.79291.79291,0,0,0,.9956-.1818c.0574,2.7875.1516,5.572.3125,8.3706q-9.9492-5.69535-19.5686-11.9297a.69919.69919,0,0,0-.7942-.0138C37.3204,124.818,37.2809,122.46765,37.2437,120.11625Zm.8361,26.427c-.0652-1.2683-.0983-2.5375-.1564-3.8057q2.9073,1.8906,5.8142,3.7814Zm6.77-.0291a.84616.84616,0,0,0-.1122-1.324l-6.898-4.4857c-.0679-1.5794-.1128-3.1595-.1723-4.7392a119.14879,119.14879,0,0,0,17.7932,10.5033Zm13.2077-1.1475c.0527,0-.0554-.047-.4145-.2132a117.85134,117.85134,0,0,1-20.029-11.511c-.0075-.0054-.0142.1317-.0217.1266-.0608-1.7223-.1087-3.411-.1598-5.1279q9.86505,6.40125,20.0784,12.24c.1277.073.2523-.1054.3723-.0993.1043,1.5933.2027,2.5848.3408,4.5848Zm36.963-8.4839a155.82883,155.82883,0,0,1-20.2442-13.2259q-.0384-3.48705-.1304-6.9726,9.6198,6.0141,19.2398,12.029a.72518.72518,0,0,0,.9544-.1169ZM93.533,96.67215a.82235.82235,0,0,0,.6051-.3244q.0396,1.81425.0791,3.6281-2.40765-1.60545-4.9325-3.0176C90.7006,96.87955,92.1168,96.78765,93.533,96.67215Zm-6.6976.4013a.70674.70674,0,0,0,.399.6243,74.00747,74.00747,0,0,1,7.0263,4.2868q.06495,2.9727.1294,5.945-7.9251-5.43405-15.9557-10.7115Q82.63755,97.25045,86.8354,97.07345Zm-13.1161.0483c.6331.022,1.2655.0237,1.8986.0389a.79577.79577,0,0,0,.3061.3824q9.19155,6.02175,18.2492,12.2419a.7811.7811,0,0,0,.2598.1094q.08925,4.10775.1788,8.2159-10.32315-6.4425-20.4338-13.2138C74.0463,102.30455,73.9003,99.713,73.7193,97.12175Zm20.8624,22.9347a.69874.69874,0,0,0,.073.0274q.07905,3.64.1584,7.2801a.81116.81116,0,0,0-.0892-.0848Q84.6526,120.9826,74.5814,114.686c-.0777-2.5794-.1838-5.1585-.303-7.7372Q84.33035,113.6572,94.5817,120.05645Zm-20.0645,26.3307c.048-1.2814.0808-2.5625.1179-3.8439q3.3852,1.90695,6.7699,3.8145Zm9.7355-.0416a.74849.74849,0,0,0-.3885-.5084q-4.5228-2.5485-9.0463-5.0969a.77358.77358,0,0,0-.1264-.0409c.047-1.8828.0507-3.7652.0747-5.6476q9.77235,6.09315,20.0635,11.2486Q89.54115,146.32255,84.2527,146.34555Zm-9.4463-13.2158-.0149-.0054c.0213-2.4716.0115-4.9425-.005-7.4131a158.13342,158.13342,0,0,0,19.4577,12.6408.76432.76432,0,0,0,.8078-.0233q.0684,3.14595.1368,6.2915Q84.72375,139.35465,74.8064,133.12975Zm56.4931,8.9284q-10.5486-6.2838-20.9543-12.8013c.1395-2.5929.2395-5.1862.3179-7.7798a196.14308,196.14308,0,0,0,20.6002,13.3264C131.2721,137.22165,131.3086,139.63955,131.2995,142.05815Zm-.046-9.178a196.09507,196.09507,0,0,1-20.4269-13.323.74486.74486,0,0,0-.1176-.0547c.0659-2.7071.0875-5.4142.0872-8.1213q9.6891,6.20985,19.6881,11.9064a.77318.77318,0,0,0,.6469.074C131.1785,126.53415,131.2356,129.70685,131.2535,132.88015Zm-.1436-11.1507q-10.3302-5.8692-20.3144-12.3074c-.0145-2.4594-.0686-4.9189-.1378-7.3777q9.84315,6.73125,20.2914,12.4723C131.0056,116.92065,131.0701,119.32475,131.1099,121.72945Zm-.204-9.1439q-10.33125-5.72625-20.0658-12.4145a.78069.78069,0,0,0-.2422-.1023c-.0994-2.9017-.2497-5.8027-.4247-8.703q9.74085,6.33585,19.8993,11.9756a.77479.77479,0,0,0,.5584.0804Q130.788,108.00335,130.9059,112.58555Zm-.6987-19.2519c.124,2.7932.2602,5.5857.3605,8.3797q-10.41585-5.7903-20.3861-12.3139a.77422.77422,0,0,0-.1334-.053q-.24225-3.6345-.5655-7.2662,10.167,5.853,20.5982,11.2179A.79543.79543,0,0,0,130.2072,93.33365Zm-1.5118-20.2422a.822.822,0,0,0,.0423.149q.1773.3435.3544.6871a.72467.72467,0,0,0,.0706.0875c.152,2.2733.2824,4.5473.4118,6.8216a113.4512,113.4512,0,0,0-12.7939-7.0753Zm-19.8556,2.4814a.88053.88053,0,0,0-.8507-.7811q.12915-.2919.2581-.5831a.74692.74692,0,0,0,.1578.0233l5.7351-.3223a.65085.65085,0,0,0,.4158.6213,113.52107,113.52107,0,0,1,15.1402,8.3426q.2331,4.28505.4301,8.5715-10.5633-5.435-20.8429-11.383C109.1411,78.56545,109.0056,77.06875,108.8398,75.57285Zm.1543,70.6667a.80159.80159,0,0,0,.0372-.119c.2027-1.9229.3615-3.8469.5301-5.7709q4.89315,3.1683,10.0648,5.8443Zm51.4796-84.6227a.64988.64988,0,0,0,.6821.5925c.0676,1.2257.1122,2.4524.1747,3.6784q-5.139-3.3669-10.5284-6.3017c.3409.0139.6811.0369,1.0223.049C154.4332,59.727,159.9933,58.54085,160.4737,61.61685ZM142.1535,59.073q2.4294.1854,4.8605.3317a.771.771,0,0,0,.1347.1095A151.63118,151.63118,0,0,1,160.9261,67.6a.72553.72553,0,0,0,.4912.1189c.1638,3.3392.3368,6.6787.4753,10.0189q-9.603-5.23185-19.2057-10.4635C142.5207,64.53975,142.3515,61.80605,142.1535,59.073Zm.6608,10.1611q9.5766,5.21745,19.153,10.4347c.1121,2.8034.2297,5.6071.3243,8.4115a188.5879,188.5879,0,0,0-18.932-8.6257Q143.10865,74.34345,142.8143,69.23405Zm.6277,12.0314a185.39475,185.39475,0,0,1,18.504,8.4992.814.814,0,0,0,.4081.0933q.1713,5.27685.303,10.5543l-18.5793-9.6114a.81235.81235,0,0,0-.2047-.0585C143.7552,87.58225,143.5907,84.42415,143.442,81.26545Zm.5007,11.333q9.3759,4.8507,18.753,9.701c.078,3.3858.1527,6.7719.2064,10.1584q-9.3882-4.71075-18.6476-9.6699Q144.12625,97.6926,143.9427,92.59845Zm.3507,12.0861q9.2523,4.9485,18.6333,9.6459c.0467,3.2058.1024,6.4112.1267,9.6172-.2936-.1256-.579-.2469-.8243-.379-2.1774-1.173-4.2858-2.4699-6.4135-3.7284a61.8021,61.8021,0,0,0-11.3246-5.5398C144.4474,111.09435,144.368,107.88965,144.2934,104.68455Zm18.8016,38.4928a79.87864,79.87864,0,0,0-18.5104-7.7648q.03945-4.62615.0327-9.2513a149.74129,149.74129,0,0,0,18.4976,10.6465C163.1105,138.93075,163.1098,141.05405,163.095,143.17735Zm-18.0537-18.7202a.728.728,0,0,0-.4331-.128c-.0088-2.751-.0642-5.5014-.0966-8.252a59.12691,59.12691,0,0,1,9.879,4.8486c1.5629.9165,3.1064,1.8652,4.6764,2.7692.6993.4027,2.8283,1.175,3.8918,1.9007a.74742.74742,0,0,0,.1061.2615c.0189,3.0324.0581,6.0638.0561,9.0963A149.79506,149.79506,0,0,1,145.0413,124.45715Z"/><path d="M141.1062.13495a.62207.62207,0,0,0-.2899-.0396,19.65606,19.65606,0,0,0-9.1834,3.2514.84087.84087,0,0,0-.1679,1.3037q.8052.81735,1.6105,1.6351-54.4488,45.2649-108.898,90.5298c-.8226.6838.3575,1.8527,1.174,1.174L134.24,7.46765q1.01955,1.0353,2.0392,2.0703a.84193.84193,0,0,0,1.304-.1683,61.346,61.346,0,0,0,4.7271-8.1101A.8634.8634,0,0,0,141.1062.13495Z"/></g></g></svg>