<svg xmlns="http://www.w3.org/2000/svg" viewBox="0 0 71.89409 99.68387"><title>Asset 23</title><g id="Layer_2" data-name="Layer 2"><g id="Objects"><path d="M68.75093,2.6334c-.0311-.4601-.1217-.8132-.5963-.83C50.29693,1.1706,32.574.8557,14.796.8534q-.0249-.13035-.0504-.2598a.78341.78341,0,0,0-1.3983-.2798.85919.85919,0,0,0-1.4415.2946Q6.85143,12.9393,1.79633,25.2698c-.3983.0625-.7972.1108-1.1959.1774-1.0517.1757-.6054,1.776.4416,1.601l.0489-.0071a620.58174,620.58174,0,0,1,5.7439,69.8711.84821.84821,0,0,0,.8301.83Q39.34568,99.25135,71.06,99.6838a.842.842,0,0,0,.8304-.8304Q72.00143,50.6974,68.75093,2.6334Zm-56.1951.7375a.83156.83156,0,0,0,.9733-.348Q15.542,13.4266,17.55443,23.83a120.9901,120.9901,0,0,0-13.8601,1.1581Q8.12488,14.17955,12.55583,3.3709ZM68.31,97.9855c-1.4858.9206-6.2963-.1007-8.2757-.1382q-8.96145-.1707-17.9219-.4317-8.95935-.26055-17.9158-.6102c-4.0534-.1591-13.7391,1.3787-15.7709-2.6077-.924-1.8136-.1919-5.949-.2828-8.1409q-.1971-4.7478-.4719-9.4919-.50625-8.80995-1.2706-17.6026c-.9389-10.7533-2.1919-21.4716-3.6811-32.1617a118.36162,118.36162,0,0,1,15.8324-1.346.843.843,0,0,0,.8007-1.051q-2.1177-10.94595-4.2355-21.8915c10.8179.0038,22.6489.121,34.0648.3869,2.7108.0628,5.3043.1334,8.0151.2114,1.9838.0571,6.2119-.6584,8.0723.2575,3.8588,1.9,2.7446,13.2939,2.9558,17.1141q1.93575,35.024,2.0216,70.1177C70.25423,93.4517,71.11543,96.2473,68.31,97.9855Z"/><path d="M31.429,43.5667q-6.51075,1.2492-13.0212,2.4977a.83428.83428,0,0,0-.3662,1.3875,50.64033,50.64033,0,0,0,12.1986,7.2354c.9844.4118,1.4142-1.1942.4412-1.6013a47.71336,47.71336,0,0,1-10.0601-5.7605q5.6244-1.0788,11.2493-2.1574C32.91893,44.9671,32.475,43.3664,31.429,43.5667Z"/><path d="M45.37563,33.3144c-.6443-2.3551-2.3213-2.3905-3.8206-.9051-.6365.6304-1.0226,9.2429-1.0601,9.5044q-.51945,3.59085-1.2176,7.1534a159.15557,159.15557,0,0,1-4.1912,16.3972c-.3159,1.0233,1.2865,1.4611,1.6014.4416A158.348,158.348,0,0,0,41.101,48.3198c.4797-2.5659,2.4608-9.3547,2.3006-13.4145a3.07763,3.07763,0,0,0,1.7605-.7828A.81579.81579,0,0,0,45.37563,33.3144Z"/><path d="M58.74213,49.939a37.51677,37.51677,0,0,0-11.2054-6.4108c-1.006-.3652-1.4398,1.2389-.4412,1.601a35.0708,35.0708,0,0,1,9.5426,5.2797q-5.9565,3.2544-11.9128,6.5085c-.9379.5125-.1007,1.9469.8381,1.4337q6.5052-3.5538,13.0105-7.108A.83586.83586,0,0,0,58.74213,49.939Z"/></g></g></svg>