<svg xmlns="http://www.w3.org/2000/svg" viewBox="0 0 106.77315 214.0285"><title>Asset 18</title><g id="Layer_2" data-name="Layer 2"><g id="Objects"><path d="M106.0105,1.485c.8909-.4635.0706-1.8301-.8794-1.4037-14.2013,6.3726-28.4039,12.7452-42.4704,19.4111q-10.2462,4.85565-20.378,9.9479c-7.4382,3.7551-14.675,7.9213-22.977,9.373a.70016.70016,0,0,0-.5571.9574.83685.83685,0,0,0-.0665,1.6145q14.32035,3.7389,28.3485,8.4399a.87422.87422,0,0,0-.0979.3118q-1.1241,10.48125-1.249,21.0134a.83631.83631,0,0,0,1.5469.4189c.0244-.05.0453-.1013.0696-.1513a.73983.73983,0,0,0,.5227.028,18.69871,18.69871,0,0,0,5.1557-2.4986c1.0567,7.2473,2.1591,14.4874,3.3777,21.7107.1243.7379.9054.7267,1.3419.3271a.73494.73494,0,0,0,.9587-.3392c15.5007-28.0885,30.1209-56.6779,45.0651-85.065a.8065.8065,0,0,0,.0507-.1723c.9142-.8452,1.8355-1.6827,2.7439-2.5347A.81624.81624,0,0,0,106.0105,1.485ZM51.2681,57.13483c.0112.0838.0247.1673.0362.2507q-1.71135,5.01735-3.8669,9.8412.2412-8.1411,1.0753-16.2446a.83371.83371,0,0,0,.1997-.1033Q66.23135,38.02638,82.793,23.99033c-10.5949,10.2169-21.4202,20.2094-31.1171,31.306a.91892.91892,0,0,0-.5145.5781l-.02.0223A.85357.85357,0,0,0,51.2681,57.13483Zm-3.1185,12.4351c1.327-2.8432,2.5668-5.7169,3.6611-8.654.2865,2.0622.6017,4.1196.8986,6.18A16.6636,16.6636,0,0,1,48.1496,69.56993Zm9.5911,19.2912c-1.1743-7.0169-2.2479-14.0483-3.277-21.0868a.69814.69814,0,0,0-.1375-.9544c-.4476-3.0817-.9101-6.1611-1.3307-9.2472.0267-.0794.0571-.1568.0838-.2362a.69807.69807,0,0,0-.2352-.8192l-.004-.0284c14.7719-16.9077,32.1644-31.2513,47.3508-47.7502C86.141,35.493,72.3224,62.39433,57.7407,88.86113Zm41.435-81.464A620.14418,620.14418,0,0,1,48.3408,49.098a.80607.80607,0,0,0-.5683-.7763q-13.3971-4.49745-27.0526-8.1064c14.1817-2.7868,27.4766-11.9959,40.3691-18.1439,14.001-6.6763,28.1459-13.0445,42.2969-19.3959Q101.3102,5.06548,99.1757,7.39713Z"/><path d="M79.3778,208.65093c-24.1671,12.7013-53.8934-7.6969-56.4593-33.5725-.0486-.4929-.0773-.995-.1067-1.4963a20.04591,20.04591,0,0,0,6.7422-.05c7.6348-1.3683,20.8395-12.151,12.2185-20.2567-8.0118-7.5327-17.3428,2.1618-19.5161,9.8006a34.513,34.513,0,0,0-1.2932,8.3348,26.119,26.119,0,0,1-15.2818-13.0493c-5.251-10.2283-4.8878-23.6016-1.1395-34.2549A33.14444,33.14444,0,0,1,15.0882,108.938c1.1594,6.4885,4.6993,12.1024,12.3716,11.3351,7.334-.7337,14.1425-12.178,6.3398-16.8526-5.5844-3.3459-12.2246-1.1595-17.7374,2.7277a34.1291,34.1291,0,0,1,2.0726-13.1155,43.04181,43.04181,0,0,1,21.7513-24.4739c.9554-.4787.1155-1.9118-.8382-1.4338a44.56475,44.56475,0,0,0-23.6273,29.3354,32.60744,32.60744,0,0,0-.6024,10.6074,36.13572,36.13572,0,0,0-7.9641,8.4932c-7.4845,11.5793-9.0557,28.7104-3.6412,41.4032,3.2442,7.6044,9.8104,14.2138,17.7509,16.2415.5294,27.4621,33.7726,50.2698,59.2522,36.879C81.1623,209.58743,80.3241,208.15393,79.3778,208.65093ZM32.9614,104.85433c7.1209,5.1902-.7209,12.5209-5.7192,13.0942-5.8885.6753-9.5648-3.3645-10.7946-8.9415-.0719-.3257-.1091-.6592-.1635-.9889C20.1882,105.28913,28.2641,101.43063,32.9614,104.85433ZM25.7091,158.871c2.4743-4.3385,6.7422-7.4024,11.732-5.7899,8.5196,2.7534,3.6146,13.0723-1.5476,16.3179a17.76518,17.76518,0,0,1-13.1371,2.4537A25.80424,25.80424,0,0,1,25.7091,158.871Z"/></g></g></svg>