<svg xmlns="http://www.w3.org/2000/svg" viewBox="0 0 162.52836 114.38214"><title>Asset 6</title><g id="Layer_2" data-name="Layer 2"><g id="Objects"><path d="M161.732,49.1865c-5.09928-.4298-10.2375-.5703-15.3865-.5733q-.44595-14.33115-.5506-28.6733c1.8314-.0743,3.6635-.131,5.4952-.2087,1.0649-.045,1.0703-1.7058,0-1.6605-1.8351.0777-3.6706-.3072-5.5057-.2325-.0159-2.3665-.0409-4.774-.0433-7.5416-.001-1.3838-1.6618-1.3838-1.66038,0,.002,2.7676.02768,5.2173.04358,7.6048-7.996.3219-15.9919.5817-23.9895.854-.003-4.1905-.0064-8.63-.0095-12.63h-1.6604c.003,4,.0064,8.6941.0094,12.9018-9.0003.3031-18.00158.7241-27.00358.968-.02092-4.0226-.05742-7.9756-.06622-11.9982a.83108.83108,0,0,0-1.66078.0348c.00908,4.0389.04558,8.0945.06688,12.133q-12.19.32535-24.3817.5921c.0355-2.7348.0676-5.4649.1186-8.1997a.83076.83076,0,0,0-1.6605.0022c-.05128,2.7443-.0834,5.4896-.1189,8.2338q-12.9075.261-25.8165.4486-.2331-4.6815-.4834-9.3616c-.05848-1.0628-1.7193-1.0694-1.66048.0002q.25887,4.69155.48448,9.3845-13.2405.1779-26.4824.2784Q9.78146,11.1726,9.75341.8022a.8309.8309,0,0,0-1.6608,0Q8.121,11.1795,8.149,21.5568c-.4841.0034-.9686.0095-1.453.0122a.83091.83091,0,0,0,0,1.6608c.4858-.003.9716-.0091,1.4574-.0122l.074,27.1986q-1.9713.02325-3.9426.047a.8307.8307,0,0,0,0,1.6604q1.97388-.02325,3.9473-.0473.01125,4.0677.022,8.1351a3.28668,3.28668,0,0,0-1.9003,1.9456,3.63056,3.63056,0,0,0,1.91792,4.4541q.01662,6.1677.03338,12.3361c-1.0003-.0179-2.001-.025-3.001-.0439a.8309.8309,0,0,0,0,1.6608c1.0017.0186,2.0037.0257,3.0054.0439q.035,12.7626.0696,25.5256c-2.526-.0652-5.052-.121-7.5777-.1912a.83071.83071,0,0,0,0,1.6604c2.527.0706,5.0547.1264,7.5824.1916q.00765,2.89305.0156,5.7858a.8307.8307,0,0,0,1.6604,0q-.0075-2.87175-.0155-5.7439,14.20785.36075,28.4171.6044c0,.7909.0064,1.5814.0054,2.3723a.83075.83075,0,0,0,1.6605,0c.001-.7808-.0051-1.5615-.0051-2.3423q12.59595.22005,25.1929.3436c.02662.5504.0472,1.1004.07462,1.6507.05268,1.0635,1.71348,1.0699,1.66048,0-.0267-.5426-.0473-1.0855-.0737-1.628q12.14595.1272,24.29222.1736c.03278,1.1764.05608,2.3534.08978,3.5297a.83076.83076,0,0,0,1.6605,0c-.0338-1.1756-.0571-2.3517-.0895-3.5273,8.5371.0317,17.0746-.368,25.6121-.393.001,1.2956.002,1.5054.003,3.5054a.83454.83454,0,0,0,1.6605,0c-.001-2-.002-2.2104-.0031-3.506,9.27872-.0311,18.55772.1365,27.8361.0142.1054,1.3172.19862,2.7736.3078,4.0905.08782,1.0574,1.7489,1.1358,1.6604.0693-.1098-1.3244-.2037-2.6147-.3094-3.939,2.7263-.0365,5.4527-.051,8.1787-.0891a.84885.84885,0,0,0,0-1.6951c-2.771.0385-5.5422.0597-8.3132.0888q-1.0257-13.08645-1.7753-26.1859c1.5172-.0193,3.0348-.0226,4.552-.0436a.83184.83184,0,0,0,0-1.6626c-1.549.0213-3.0983.0256-4.6476.0449q-.8109-14.51205-1.2926-29.0383c5.1311.004,10.251.1453,15.3331.5737C162.79681,50.9371,162.79081,49.2757,161.732,49.1865ZM9.81421,23.2034q13.28265-.0912,26.5638-.2793.66225,13.5678,1.1152,27.1428l-27.605.3294Q9.85116,36.8,9.81421,23.2034Zm.0784,28.8533,27.6513-.33q.24615,7.62105.4202,15.2442l-6.2766,9.903a3.19074,3.19074,0,0,0-2.4504.0591.63364.63364,0,0,0-.7162.0794c-.027.0206-.048.0473-.0743.0686a159.46308,159.46308,0,0,1-14.8152-12.3716,5.30568,5.30568,0,0,0-1.1581-3.4838,3.6771,3.6771,0,0,0-2.5591-1.254Q9.90311,56.0143,9.89261,52.0567Zm28.1327,17.9179c.0682,3.1287.1395,6.2574.1915,9.3864-1.5696-.0179-3.1388-.0462-4.7084-.0648a3.36142,3.36142,0,0,0-.5274-1.3632Q35.50371,73.95395,38.02531,69.9746ZM9.93381,67.2499a3.40791,3.40791,0,0,0,1.3061.1156,2.49713,2.49713,0,0,0,1.8135-.9257,162.83769,162.83769,0,0,0,14.3898,11.9516,3.55368,3.55368,0,0,0-.2692.8173c-5.7362-.073-11.47228-.1358-17.2081-.2372Q9.95016,73.11085,9.93381,67.2499Zm.1061,38.9256q-.0345-12.77175-.0696-25.5432c5.7787.102,11.55742.1652,17.3361.2389a3.14262,3.14262,0,0,0,.4486.8797,3.36054,3.36054,0,0,0,4.7713.3922,2.90464,2.90464,0,0,0,.8155-1.1888c1.6342.0192,3.26792.0486,4.9021.0675q.20115,12.8772.2141,25.7581Q24.24821,106.5255,10.03991,106.1755Zm27.9972-83.2741q12.85443-.17835,25.707-.4463-.1308,11.02755-.08138,22.0537-2.42028-3.4155-4.97872-6.6946a6.70308,6.70308,0,0,0,.4963-1.1446c.5648-1.8162.08542-4.2398-2.12058-4.5702a3.06637,3.06637,0,0,0-2.40372.751.63983.63983,0,0,0-.67228.4196c-.11492.2628-.22812.5385-.33282.8226a3.57605,3.57605,0,0,0-.4068,1.4274c-.33338,1.605-.1489,3.2263,1.5565,4.13a2.85158,2.85158,0,0,0,.375.1645q-3.20682,5.059-6.41288,10.1183l-9.60942.1145Q38.70076,36.4708,38.03711,22.9014Zm25.6371,26.8533-12.9314.1544q3.3192-5.23785,6.6392-10.4753a3.78577,3.78577,0,0,0,.28272-.2659c2.11688,2.7997,4.09828,5.7091,6.00538,8.6736C63.67351,48.479,63.66941,49.1169,63.67421,49.7547Zm-24.4706,1.9524,8.4987-.1014q-4.06875,6.42015-8.1382,12.8402Q39.40556,58.076,39.20361,51.7071Zm.4305,15.7293q5.02395-7.9272,10.0482-15.8543l14.0105-.1673q.117,14.08635.5158,28.1682-12.1656-.073-24.331-.1993Q39.77891,73.4095,39.63411,67.4364Zm.4844,39.3735q-.01167-12.88425-.21378-25.7651,12.17517.1359,24.35058.199.3765,12.95775.9848,25.9087Q52.67911,107.0151,40.11851,106.8099Zm50.4809-25.484c.0477,2.2909.1092,4.5821.1656,6.8729q-2.09955-3.4149-4.172-6.8841C87.92851,81.3161,89.264,81.3256,90.59941,81.3259Zm-.0311-1.6611c-1.6554-.0007-3.3108-.0119-4.9662-.0136-5.6189-9.4594-11.2046-19.085-17.2587-28.2918l14.904-.178q3.42315-.0411,6.846-.0818Q90.28031,65.38305,90.56831,79.6648ZM65.40491,22.4264q12.20823-.25185,24.41482-.5841.07857,13.7994.25338,27.5972-3.41307.0405-6.8257.0814l-15.9813.1909c-.6372-.9534-1.2886-1.8922-1.9379-2.8341Q65.26686,34.6527,65.40491,22.4264Zm-.0517,28.9685.5591-.0067c2.49942,4.0266,4.9203,8.103,7.4125,12.0905l10.1037,16.1665c-5.853-.0095-11.7064-.0156-17.5591-.0487Q65.47566,65.49815,65.35321,51.3949Zm1.5483,55.7802q-.61065-12.95565-.9854-25.9174,9.27615.0522,18.5523.0513l5.6564,9.0507a.81908.81908,0,0,0-.73308.3331,8.17238,8.17238,0,0,0-.497.7625,3.25043,3.25043,0,0,0-.52972,1.1361c-.0034.0145-.0007.0287-.0037.0432a3.59546,3.59546,0,0,0,.978,4.3064,3.51043,3.51043,0,0,0,1.6537.7088c.0804,3.2331.1453,6.4666.2338,9.6997Q79.06361,107.2982,66.90151,107.1751Zm24.5787-85.3804q13.499-.366,26.9952-.8284.009,11.33865.0172,22.6773-2.24745,2.7126-4.3943,5.5091-11.18295.1332-22.3648.2669Q91.55834,35.60745,91.48021,21.7947Zm17.2499,40.8384a3.69375,3.69375,0,0,0,2.0223-4.4612,3.39715,3.39715,0,0,0-.50268-.9648q2.27022-3.25185,4.65978-6.4037,1.79445-.0213,3.5885-.0429.01065,14.40945.0216,28.8184-9.91215.0558-19.8246.0632,3.87825-8.5443,8.2145-16.8813A2.79347,2.79347,0,0,0,108.73011,62.6331ZM118.49661,49.1q-1.14165.01365-2.2834.0274,1.128-1.4469,2.2814-2.872Q118.49566,47.67785,118.49661,49.1Zm-26.7431,1.9797q10.53285-.1251,21.0655-.2513-1.97592,2.62995-3.8605,5.3364a2.36586,2.36586,0,0,0-.9655-.1885.71985.71985,0,0,0-1.075-.2598c-1.5777,1.0737-2.8156,2.8743-2.2122,4.8524a3.34992,3.34992,0,0,0,.7845,1.326q-4.56087,8.7597-8.6047,17.753c-1.5524.002-3.1048.0148-4.6568.0148Q91.938,65.3722,91.75351,51.0797Zm.5064,30.2438c1.2953,0,2.5905-.0108,3.88582-.0125q-1.89528,4.26285-3.67942,8.5784C92.39981,87.034,92.31941,84.1789,92.25991,81.3235Zm.6274,26.0283c-.0899-3.2736-.1551-6.5483-.2369-9.8222a3.79786,3.79786,0,0,0,2.0142-1.4541,3.93994,3.93994,0,0,0-.7892-5.2783q1.9698-4.77975,4.0784-9.4919,10.28355-.0162,20.5668-.0656.0102,13.05.0196,26.1006C109.98921,107.365,101.43821,107.3839,92.88731,107.3518Zm27.2661-63.1221q5.68575-6.81525,12.0097-13.0925a3.31522,3.31522,0,0,0,4.71962-.8267c.96218-1.6037.38818-4.1564-1.59462-4.6341a2.73562,2.73562,0,0,0-1.5827.1223.67471.67471,0,0,0-.6558-.0611,3.23841,3.23841,0,0,0-1.89488,4.0604q-5.76288,5.71725-11.003,11.8716-.00768-10.3773-.01552-20.7543c8.0003-.2727,15.9992-.5906,23.9982-.9122q.1161,14.3154.551,28.6209c-7.7865.0381-15.5905.3496-23.3182.4419q-.605.007-1.2101.0145Q120.15516,46.65505,120.15341,44.2297Zm.0051,6.5118q.6045-.0075,1.2087-.0148c7.7466-.0923,15.5682-.4051,23.3716-.4423q.47175,14.5293,1.2932,29.0432-12.9258.1545-25.8519.2473Q120.16946,65.1587,120.15851,50.7415Zm27.7448,56.4384q-13.85115.13575-27.7023.1814-.01-13.053-.0196-26.1161,12.973-.07815,25.9459-.2538Q146.87731,94.09255,147.90331,107.1799Z"/></g></g></svg>