<svg xmlns="http://www.w3.org/2000/svg" viewBox="0 0 73.5415 108.72555"><title>Asset 3</title><g id="Layer_2" data-name="Layer 2"><g id="Objects"><path d="M53.05968,2.98679c-15.0837-6.653-32.7266-2.0121-41.5843,12.1321a32.09651,32.09651,0,0,0-4.5689,22.7735c2.15711,11.5706,12.03811,23.4385,5.7402,35.0655a5.885,5.885,0,0,0-6.4949,5.3405,7.49379,7.49379,0,0,0,.1375,2.4986.81735.81735,0,0,0-.2044.0619,5.586,5.586,0,0,0-3.0102,6.2256,5.0258,5.0258,0,0,0-3.0314,5.4061,6.072,6.072,0,0,0,.7264,2.2138c-.0058,4.8588,1.9202,10.326,6.3148,12.9051,4.8108,2.8236,9.8466-.2153,13.48511-3.5125a.7204.7204,0,0,0,.25409-.5386c2.5733-.3689,4.4344-1.8493,4.3743-5.3368a.77661.77661,0,0,0-.15039-.4452c.11319-.0314.23249-.0527.34129-.0909,2.3614-.8304,2.0314-3.4176,1.92971-5.6007a6.51544,6.51544,0,0,0,2.126-.9544c2.48209-1.7347,2.84789-4.7256.96079-6.729a44.75078,44.75078,0,0,1,14.6175-12.8263c4.7149-2.5909,9.851-4.4226,14.2844-7.5206a34.09138,34.09138,0,0,0,13.6861-22.2361C75.73868,25.90429,68.02928,9.58949,53.05968,2.98679ZM6.40918,105.00949a13.059,13.059,0,0,1-3.84559-8.076,24.81,24.81,0,0,0,5.149,3.379,30.38314,30.38314,0,0,0,10.86989,3.3155C15.02638,106.59659,10.42608,108.75,6.40918,105.00949Zm17.1283-6.7879c.1226,7.1129-10.9871,2.6213-13.6354,1.348-2.8412-1.3659-13.1784-8.1057-6.3084-10.9314,1.31791,2.7966,4.29991,4.3544,7.032,5.5085,3.0811,1.301,8.83991,4.0459,12.9523,3.8581A.79264.79264,0,0,0,23.53748,98.22159Zm-.64289-2.1983c-1.96521.2115-4.80171-.9513-6.69461-1.5817a50.1162,50.1162,0,0,1-6.3108-2.4017c-2.5043-1.2395-9.3817-6.1973-3.0719-9.6858,1.44931,3.1426,4.87231,5.3818,7.9304,6.7851,2.9631,1.3598,7.1881,3.3605,10.8962,3.1936.0152.5905.0331,1.1811.0142,1.772Q25.23134,96.85234,22.89459,96.02329Zm-.403-5.8763q-1.229-.2949-2.42441-.7064a40.31375,40.31375,0,0,1-5.1709-2.0639,17.21886,17.21886,0,0,1-4.3169-2.7158q-.834-.97755-1.6685-1.9554-2.9175-4.34445,2.777-7.4017a.92121.92121,0,0,0,.5074.3841c1.9811,6.6409,10.3007,7.7335,16.0419,9.4027a.82721.82721,0,0,0,.3402.378C27.20978,89.50749,25.18508,91.08209,22.49159,90.147ZM17.124,79.50619a67.01021,67.01021,0,0,0,7.3872-35.8239c6.41041-2.9247,12.8182,2.6946,19.28841,6.7145-8.49251,8.955-13.68041,20.6584-18.48341,32.2144A26.76472,26.76472,0,0,1,17.124,79.50619Zm51.2803-28.7121c-5.1662,10.6027-14.5601,14.0783-24.2192,19.3472a46.4054,46.4054,0,0,0-15.1973,13.401.63908.63908,0,0,0-.1017.0257.31653.31653,0,0,0-.0817-.0433c-.58379-.1716-1.2199-.3371-1.874-.5037,4.7331-11.3874,9.8473-22.9766,18.3168-31.758,2.8571,1.6409,5.727,2.824,8.6162,2.6672,1.0629-.0574,1.0696-1.7182,0-1.6604a14.79184,14.79184,0,0,1-7.5253-2.0781,45.98656,45.98656,0,0,1,8.4108-6.5479.8309.8309,0,0,0-.8382-1.4338,47.60526,47.60526,0,0,0-9.079,7.1473c-6.7162-3.9054-13.5412-10.0351-20.4783-7.4014a70.05206,70.05206,0,0,0-1.076-7.2074c-.2142-1.0462-1.8152-.6033-1.6014.4412a67.61489,67.61489,0,0,1,1.095,7.5325,14.32221,14.32221,0,0,0-2.9088,2.2523.83061.83061,0,0,0,1.174,1.174,13.70528,13.70528,0,0,1,1.8736-1.5581,65.301,65.301,0,0,1-7.1064,33.8519,7.24532,7.24532,0,0,1-2.0307-3.2608.77238.77238,0,0,0-.272-.3976c.0534-.0855.0956-.1713.1473-.2568a.93.93,0,0,0,.42061-.7334c7.675-13.9821-6.703-28.3776-5.98-42.8262,1.03209-20.6287,21.62559-33.8945,40.914-27.7567C68.61068,9.45059,77.27108,32.59579,68.40428,50.79409Z"/></g></g></svg>